<svg xmlns="http://www.w3.org/2000/svg" viewBox="0 0 1200 675" width="1200" height="675">
<defs><linearGradient id="bg" x2="1" y2="1"><stop stop-color="#10283D"/><stop offset=".52" stop-color="#184958"/><stop offset="1" stop-color="#0D3044"/></linearGradient><linearGradient id="drop" x1=".15" y1=".15" x2=".87" y2=".91"><stop stop-color="#F5E6B6" stop-opacity=".96"/><stop offset=".35" stop-color="#74B6B8" stop-opacity=".8"/><stop offset=".8" stop-color="#1C687C" stop-opacity=".88"/><stop offset="1" stop-color="#0A3555" stop-opacity=".96"/></linearGradient><pattern id="grid" width="50" height="50" patternUnits="userSpaceOnUse"><path d="M50 0H0V50" fill="none" stroke="#B5D2D0" stroke-opacity=".14" stroke-width="1"/></pattern>
</defs>
<rect width="1200" height="675" fill="url(#bg)"/><rect width="1200" height="675" fill="url(#grid)"/>
<g fill="none" stroke="#95C5C6" stroke-opacity=".3" stroke-width="2"><path d="M-60 132C182 196 330 66 568 116S930 205 1260 133"/><path d="M-60 281C182 336 317 231 574 273S982 347 1260 282"/><path d="M-60 569C189 630 390 500 640 545S1027 622 1260 555"/></g>
<g transform="translate(235 242) rotate(-24)"><ellipse rx="98" ry="62" fill="url(#drop)" stroke="#D9C486" stroke-width="2.5"/><ellipse rx="86" ry="52" fill="none" stroke="#F6EEE0" stroke-opacity=".4"/><path d="M-63.7 -4.96 Q-41.16 -43.4 21.56 -34.1" fill="none" stroke="#F9F7E9" stroke-opacity=".75" stroke-width="4" stroke-linecap="round"/></g>
<g transform="translate(489 447) rotate(28)"><ellipse rx="76" ry="47" fill="url(#drop)" stroke="#C4DCD5" stroke-width="2.5"/><ellipse rx="64" ry="37" fill="none" stroke="#F6EEE0" stroke-opacity=".4"/><path d="M-49.4 -3.7600000000000002 Q-31.919999999999998 -32.9 16.72 -25.85" fill="none" stroke="#F9F7E9" stroke-opacity=".75" stroke-width="4" stroke-linecap="round"/></g>
<g transform="translate(741 200) rotate(-17)"><ellipse rx="129" ry="70" fill="url(#drop)" stroke="#D9C486" stroke-width="2.5"/><ellipse rx="117" ry="60" fill="none" stroke="#F6EEE0" stroke-opacity=".4"/><path d="M-83.85000000000001 -5.6000000000000005 Q-54.18 -49 28.38 -38.5" fill="none" stroke="#F9F7E9" stroke-opacity=".75" stroke-width="4" stroke-linecap="round"/></g>
<g transform="translate(963 419) rotate(18)"><ellipse rx="105" ry="55" fill="url(#drop)" stroke="#C4DCD5" stroke-width="2.5"/><ellipse rx="93" ry="45" fill="none" stroke="#F6EEE0" stroke-opacity=".4"/><path d="M-68.25 -4.4 Q-44.1 -38.5 23.1 -30.250000000000004" fill="none" stroke="#F9F7E9" stroke-opacity=".75" stroke-width="4" stroke-linecap="round"/></g>
<g transform="translate(579 103) rotate(-11)"><ellipse rx="40" ry="26" fill="url(#drop)" stroke="#D9C486" stroke-width="2.5"/><ellipse rx="28" ry="16" fill="none" stroke="#F6EEE0" stroke-opacity=".4"/><path d="M-26 -2.08 Q-16.8 -18.2 8.8 -14.3" fill="none" stroke="#F9F7E9" stroke-opacity=".75" stroke-width="4" stroke-linecap="round"/></g>
<g transform="translate(110 501) rotate(24)"><ellipse rx="35" ry="24" fill="url(#drop)" stroke="#C4DCD5" stroke-width="2.5"/><ellipse rx="23" ry="14" fill="none" stroke="#F6EEE0" stroke-opacity=".4"/><path d="M-22.75 -1.92 Q-14.7 -16.799999999999997 7.7 -13.200000000000001" fill="none" stroke="#F9F7E9" stroke-opacity=".75" stroke-width="4" stroke-linecap="round"/></g>
<g fill="#A8D5CF" opacity=".4"><circle cx="365" cy="127" r="6"/><circle cx="870" cy="330" r="8"/><circle cx="1088" cy="113" r="4"/><circle cx="358" cy="543" r="5"/><circle cx="1080" cy="585" r="5"/></g>
</svg>
